<svg width="40" height="40" viewBox="0 0 40 40" fill="none" xmlns="http://www.w3.org/2000/svg">
<path d="M15.9949 19.6364V15.8799H3.99872C2.90816 15.8799 1.93878 16.3646 1.21173 17.0917C0.484694 17.8187 0 19.0305 0 20.2422C0.121173 22.3022 1.93878 23.9987 4.1199 23.9987H15.9949V35.9952C15.9949 38.2976 18.0548 40.1152 20.236 39.994C22.2959 39.8729 23.9923 38.0552 23.9923 35.874V23.9987H20.236C17.8125 23.8775 15.9949 22.0599 15.9949 19.6364Z" fill="#094063"/>
<path d="M39.8624 19.6363C39.7413 17.5763 37.9237 15.8799 35.7425 15.8799H23.8676V4.00455C23.8676 1.7022 21.8076 -0.115451 19.6265 0.0057253C17.5665 0.126902 15.8701 1.94455 15.8701 4.12573V16.001H19.6265C21.9288 16.001 23.8676 17.9399 23.8676 20.2422V23.9987H35.8637C36.9543 23.9987 37.9237 23.514 38.6507 22.7869C39.4989 21.9387 39.8624 20.8481 39.8624 19.6363Z" fill="#89CBF0"/>
<path d="M19.6265 16.001H15.8701V19.7574C15.8701 22.0598 17.8089 23.9986 20.1112 23.9986H23.8676V20.2422C23.8676 17.8186 22.05 16.001 19.6265 16.001Z" fill="#5299D3"/>
</svg>
